<svg width="300" height="300" viewBox="0 0 300 300" fill="none" xmlns="http://www.w3.org/2000/svg">
<path fill-rule="evenodd" clip-rule="evenodd" d="M158.281 3.65771C153.837 -1.21924 146.163 -1.21924 141.719 3.65771L122.654 24.5835C119.706 27.8187 115.144 29.041 110.974 27.713L84.0002 19.1235C77.7136 17.1216 71.0671 20.959 69.6575 27.4042L63.6093 55.0591C62.6742 59.3348 59.3348 62.6742 55.0592 63.6093L27.4042 69.6575C20.959 71.0671 17.1216 77.7136 19.1235 84.0002L27.713 110.974C29.041 115.144 27.8187 119.706 24.5835 122.654L3.65771 141.719C-1.21923 146.163 -1.21924 153.837 3.65771 158.281L24.5835 177.346C27.8187 180.294 29.041 184.856 27.713 189.026L19.1235 216C17.1216 222.286 20.959 228.933 27.4042 230.342L55.0591 236.391C59.3348 237.326 62.6742 240.665 63.6093 244.941L69.6575 272.596C71.0671 279.041 77.7136 282.878 84.0002 280.876L110.974 272.287C115.144 270.959 119.706 272.181 122.654 275.417L141.719 296.342C146.163 301.219 153.837 301.219 158.281 296.342L177.346 275.417C180.294 272.181 184.856 270.959 189.026 272.287L216 280.876C222.286 282.878 228.933 279.041 230.342 272.596L236.391 244.941C237.326 240.665 240.665 237.326 244.941 236.391L272.596 230.342C279.041 228.933 282.878 222.286 280.876 216L272.287 189.026C270.959 184.856 272.181 180.294 275.417 177.346L296.342 158.281C301.219 153.837 301.219 146.163 296.342 141.719L275.417 122.654C272.181 119.706 270.959 115.144 272.287 110.974L280.876 84.0002C282.878 77.7136 279.041 71.0671 272.596 69.6575L244.941 63.6093C240.665 62.6742 237.326 59.3348 236.391 55.0591L230.342 27.4042C228.933 20.959 222.286 17.1216 216 19.1235L189.026 27.713C184.856 29.041 180.294 27.8187 177.346 24.5835L158.281 3.65771ZM207.468 121.692C210.844 118.333 210.844 112.878 207.468 109.519H207.495C204.119 106.16 198.637 106.16 195.262 109.519L132.23 172.209L103.765 143.914C100.39 140.555 94.9075 140.555 91.5318 143.914C88.1561 147.273 88.1561 152.727 91.5318 156.086L126.099 190.481C129.475 193.84 134.957 193.84 138.333 190.481L207.468 121.692Z" fill="black"/>
</svg>
