<svg width="84" height="22" viewBox="0 0 84 22" fill="none" xmlns="http://www.w3.org/2000/svg">
<path d="M41.831 1.00208L41.8212 0.0021316L41.831 1.00208ZM80.8441 21.9878C81.3896 22.0739 81.9016 21.7015 81.9878 21.1559L83.3912 12.266C83.4773 11.7205 83.1049 11.2085 82.5593 11.1223C82.0138 11.0362 81.5018 11.4086 81.4156 11.9542L80.1682 19.8563L72.266 18.6088C71.7205 18.5227 71.2084 18.8951 71.1223 19.4407C71.0362 19.9862 71.4086 20.4983 71.9542 20.5844L80.8441 21.9878ZM1 21C1.76988 21.6382 1.76971 21.6384 1.76961 21.6385C1.76966 21.6385 1.76962 21.6385 1.76972 21.6384C1.76991 21.6382 1.77036 21.6376 1.77105 21.6368C1.77243 21.6351 1.7748 21.6323 1.77816 21.6283C1.78489 21.6203 1.79556 21.6076 1.81015 21.5904C1.83932 21.556 1.88417 21.5036 1.94442 21.4343C2.06494 21.2958 2.24707 21.0899 2.48878 20.8262C2.97226 20.2987 3.69373 19.5403 4.63691 18.6273C6.52411 16.8006 9.29422 14.3596 12.817 11.9115C19.8707 7.00967 29.8844 2.11845 41.8407 2.00204L41.8212 0.0021316C29.3265 0.123787 18.9247 5.23152 11.6757 10.2691C8.0471 12.7908 5.19404 15.3046 3.24591 17.1903C2.27143 18.1335 1.52219 18.9208 1.01438 19.4748C0.760447 19.7519 0.566786 19.9707 0.435423 20.1217C0.369739 20.1972 0.319621 20.2558 0.285322 20.2962C0.268173 20.3164 0.254977 20.3321 0.245766 20.3431C0.241161 20.3486 0.237552 20.3529 0.234943 20.356C0.233639 20.3576 0.232585 20.3588 0.231781 20.3598C0.231379 20.3603 0.230964 20.3608 0.230763 20.361C0.230411 20.3615 0.230121 20.3618 1 21ZM41.8407 2.00204C53.7783 1.88581 63.3612 6.76647 69.9863 11.7131C73.2967 14.1847 75.8563 16.664 77.5862 18.5231C78.4507 19.4521 79.1067 20.2249 79.5444 20.7624C79.7632 21.0311 79.9274 21.2409 80.0356 21.3819C80.0897 21.4523 80.1299 21.5056 80.1559 21.5404C80.1689 21.5578 80.1783 21.5706 80.1842 21.5786C80.1872 21.5826 80.1893 21.5854 80.1904 21.587C80.191 21.5878 80.1914 21.5883 80.1915 21.5885C80.1916 21.5886 80.1915 21.5886 80.1916 21.5886C80.1915 21.5884 80.1913 21.5882 81 21C81.8087 20.4118 81.8084 20.4114 81.8081 20.411C81.8079 20.4107 81.8075 20.4101 81.8071 20.4096C81.8064 20.4086 81.8054 20.4072 81.8042 20.4056C81.8018 20.4023 81.7985 20.3978 81.7942 20.3921C81.7858 20.3806 81.7738 20.3644 81.7582 20.3435C81.727 20.3018 81.6815 20.2414 81.6219 20.1638C81.5026 20.0084 81.3266 19.7837 81.0953 19.4995C80.6325 18.9313 79.9477 18.125 79.0503 17.1606C77.2565 15.2329 74.6084 12.6681 71.1829 10.1105C64.3363 4.9986 54.3347 -0.119706 41.8212 0.0021316L41.8407 2.00204Z" fill="white"/>
</svg>
