<svg width="41" height="23" viewBox="0 0 41 23" fill="none" xmlns="http://www.w3.org/2000/svg">
<path d="M6.98 22.36C5.12 22.36 3.58 21.61 2.36 20.11C1.14 18.59 0.53 16.61 0.53 14.17C0.53 11.73 0.95 9.51 1.79 7.51C2.63 5.49 3.83 3.85 5.39 2.59C6.95 1.33 8.61 0.699999 10.37 0.699999C12.15 0.699999 13.58 1.1 14.66 1.9C15.76 2.7 16.31 3.66 16.31 4.78C16.31 5.88 15.98 6.82 15.32 7.6C14.68 7.6 13.96 7.46 13.16 7.18C12.36 6.9 11.76 6.56 11.36 6.16L11.93 3.13C11.45 2.83 10.82 2.68 10.04 2.68C8.82 2.68 7.74 3.73 6.8 5.83C5.86 7.91 5.39 10.48 5.39 13.54C5.39 15.56 5.72 17.03 6.38 17.95C7.06 18.85 7.88 19.3 8.84 19.3C10.42 19.3 11.94 18.56 13.4 17.08L14.63 18.19C14.41 18.51 14.01 18.95 13.43 19.51C12.85 20.07 12.28 20.54 11.72 20.92C11.16 21.28 10.45 21.61 9.59 21.91C8.73 22.21 7.86 22.36 6.98 22.36ZM16.3998 19.75C16.3998 18.89 16.6598 17.43 17.1798 15.37C17.6998 13.29 17.9598 12.02 17.9598 11.56C17.9598 11.08 17.5998 10.45 16.8798 9.67L16.9098 9.28C18.2698 9 20.0598 8.86 22.2798 8.86C22.3798 9.12 22.4298 9.59 22.4298 10.27C22.4298 10.95 22.1498 12.4 21.5898 14.62C21.0298 16.84 20.7498 18.22 20.7498 18.76C20.7498 19.3 20.9498 19.57 21.3498 19.57C21.9298 19.57 22.5998 19.36 23.3598 18.94C23.4398 18.46 23.6398 17.54 23.9598 16.18C24.6798 12.98 25.0398 10.69 25.0398 9.31C25.7398 9.03 26.9998 8.89 28.8198 8.89H29.3898C29.3898 9.83 29.1098 11.67 28.5498 14.41C27.9898 17.13 27.7098 18.73 27.7098 19.21C27.7098 19.67 27.8098 19.9 28.0098 19.9C28.1298 19.9 28.6998 19.66 29.7198 19.18L30.2898 20.14C28.5098 21.62 26.9498 22.36 25.6098 22.36C24.9698 22.36 24.4198 22.18 23.9598 21.82C23.5198 21.46 23.2698 20.99 23.2098 20.41C21.5898 21.73 20.1198 22.39 18.7998 22.39C18.0998 22.39 17.5198 22.16 17.0598 21.7C16.6198 21.24 16.3998 20.59 16.3998 19.75ZM40.5205 9.07C40.4805 9.57 40.3105 10.15 40.0105 10.81C39.2505 10.73 38.5305 10.69 37.8505 10.69H37.3105C36.3905 15.15 35.9305 17.93 35.9305 19.03C35.9305 19.61 36.0505 19.9 36.2905 19.9C36.5505 19.9 37.2205 19.65 38.3005 19.15L38.8405 20.14C37.0605 21.62 35.4105 22.36 33.8905 22.36C33.1905 22.36 32.6105 22.14 32.1505 21.7C31.7105 21.26 31.4905 20.68 31.4905 19.96C31.4905 19.22 31.5705 18.39 31.7305 17.47C31.9105 16.55 32.1505 15.43 32.4505 14.11C32.7505 12.77 32.9705 11.69 33.1105 10.87C32.3705 10.93 31.8205 10.99 31.4605 11.05C31.4205 10.81 31.4005 10.49 31.4005 10.09C31.4005 9.67 31.4305 9.33 31.4905 9.07H33.3805C33.5405 7.99 33.6205 6.97 33.6205 6.01L33.5905 5.08V4.99C35.1505 4.45 36.6205 4.18 38.0005 4.18C38.0805 4.58 38.1205 5.08 38.1205 5.68C38.1205 6.28 37.9505 7.41 37.6105 9.07H40.5205Z" fill="white"/>
</svg>
