<svg width="48" height="24" viewBox="0 0 48 24" fill="none" xmlns="http://www.w3.org/2000/svg">
<path d="M6.47 23.36C5.07 23.36 3.73 22.96 2.45 22.16C1.81 21.76 1.28 21.2 0.86 20.48C0.46 19.76 0.26 18.93 0.26 17.99C0.26 16.21 0.85 14.76 2.03 13.64C3.21 12.52 4.63 11.87 6.29 11.69C5.17 11.39 4.27 10.87 3.59 10.13C2.93 9.39 2.6 8.45 2.6 7.31C2.6 5.59 3.27 4.23 4.61 3.23C5.97 2.21 7.52 1.7 9.26 1.7C11 1.7 12.45 2.07 13.61 2.81C14.77 3.55 15.35 4.55 15.35 5.81C15.35 6.25 15.27 6.68 15.11 7.1C14.97 7.52 14.82 7.82 14.66 8L14.45 8.3C13.81 8.3 13.1 8.19 12.32 7.97C11.56 7.75 11 7.47 10.64 7.13L11 4.04C10.7 3.74 10.19 3.59 9.47 3.59C8.77 3.59 8.21 3.96 7.79 4.7C7.39 5.42 7.19 6.25 7.19 7.19C7.19 8.13 7.3 8.84 7.52 9.32C7.74 9.8 8.05 10.17 8.45 10.43C9.07 10.83 9.8 11.11 10.64 11.27L10.4 12.92C8.96 12.92 7.71 13.35 6.65 14.21C5.59 15.05 5.06 16.17 5.06 17.57C5.06 18.45 5.34 19.18 5.9 19.76C6.48 20.32 7.22 20.6 8.12 20.6C9.76 20.6 11.44 19.77 13.16 18.11L14.36 19.22C12.04 21.98 9.41 23.36 6.47 23.36ZM29.5595 21.17C27.8595 22.63 26.3595 23.36 25.0595 23.36C23.7795 23.36 23.0395 22.72 22.8395 21.44C22.2395 22.04 21.5695 22.51 20.8295 22.85C20.0895 23.19 19.4395 23.36 18.8795 23.36C17.9195 23.36 17.0995 22.94 16.4195 22.1C15.7395 21.26 15.3995 19.96 15.3995 18.2C15.3995 15.56 15.9595 13.49 17.0795 11.99C18.1995 10.47 19.4595 9.71 20.8595 9.71C22.2795 9.71 23.4695 10.03 24.4295 10.67C25.0495 7.43 25.3595 4.88 25.3595 3.02L25.2095 1.76C26.7095 1.24 28.1795 0.979999 29.6195 0.979999C29.7795 1.32 29.8595 1.71 29.8595 2.15C29.8595 3.61 29.4195 6.58 28.5395 11.06C27.6595 15.52 27.2195 18.55 27.2195 20.15C27.2195 20.63 27.3295 20.87 27.5495 20.87C27.6695 20.87 28.0495 20.68 28.6895 20.3L28.9895 20.12L29.5595 21.17ZM22.3295 11.48C21.6295 11.48 21.0195 12.17 20.4995 13.55C19.9995 14.93 19.7495 16.3 19.7495 17.66C19.7495 19 19.8395 19.86 20.0195 20.24C20.2195 20.62 20.5095 20.81 20.8895 20.81C21.5495 20.81 22.1995 20.54 22.8395 20C22.8995 19.2 23.3495 16.54 24.1895 12.02C23.5095 11.66 22.8895 11.48 22.3295 11.48ZM36.608 11.57C36.608 12.41 36.338 13.86 35.798 15.92C35.258 17.96 34.988 19.3 34.988 19.94C34.988 20.56 35.078 20.87 35.258 20.87C35.378 20.87 35.838 20.68 36.638 20.3L36.998 20.12L37.508 21.17C37.328 21.33 37.088 21.53 36.788 21.77C36.488 22.01 35.928 22.34 35.108 22.76C34.288 23.16 33.528 23.36 32.828 23.36C32.128 23.36 31.578 23.15 31.178 22.73C30.778 22.29 30.578 21.71 30.578 20.99C30.578 20.25 30.828 18.95 31.328 17.09C31.828 15.21 32.078 13.99 32.078 13.43C32.078 12.59 31.818 11.8 31.298 11.06L31.028 10.7L31.058 10.31C32.118 10.01 33.838 9.86 36.218 9.86C36.478 10.16 36.608 10.73 36.608 11.57ZM33.188 6.59C32.788 6.19 32.588 5.66 32.588 5C32.588 4.34 32.858 3.76 33.398 3.26C33.958 2.76 34.598 2.51 35.318 2.51C36.038 2.51 36.598 2.71 36.998 3.11C37.398 3.51 37.598 4.04 37.598 4.7C37.598 5.34 37.308 5.91 36.728 6.41C36.168 6.91 35.538 7.16 34.838 7.16C34.138 7.16 33.588 6.97 33.188 6.59ZM47.9619 10.07C47.9219 10.57 47.7519 11.15 47.4519 11.81C46.6919 11.73 45.9719 11.69 45.2919 11.69H44.7519C43.8319 16.15 43.3719 18.93 43.3719 20.03C43.3719 20.61 43.4919 20.9 43.7319 20.9C43.9919 20.9 44.6619 20.65 45.7419 20.15L46.2819 21.14C44.5019 22.62 42.8519 23.36 41.3319 23.36C40.6319 23.36 40.0519 23.14 39.5919 22.7C39.1519 22.26 38.9319 21.68 38.9319 20.96C38.9319 20.22 39.0119 19.39 39.1719 18.47C39.3519 17.55 39.5919 16.43 39.8919 15.11C40.1919 13.77 40.4119 12.69 40.5519 11.87C39.8119 11.93 39.2619 11.99 38.9019 12.05C38.8619 11.81 38.8419 11.49 38.8419 11.09C38.8419 10.67 38.8719 10.33 38.9319 10.07H40.8219C40.9819 8.99 41.0619 7.97 41.0619 7.01L41.0319 6.08V5.99C42.5919 5.45 44.0619 5.18 45.4419 5.18C45.5219 5.58 45.5619 6.08 45.5619 6.68C45.5619 7.28 45.3919 8.41 45.0519 10.07H47.9619Z" fill="white"/>
</svg>
