<svg width="111" height="23" viewBox="0 0 111 23" fill="none" xmlns="http://www.w3.org/2000/svg">
<path d="M12.96 16.12C12.96 18.04 12.23 19.56 10.77 20.68C9.31 21.8 7.54 22.36 5.46 22.36C4.06 22.36 2.9 22.01 1.98 21.31C1.08 20.59 0.58 19.98 0.48 19.48C0.7 18.82 1.17 18.08 1.89 17.26C2.61 16.44 3.26 15.94 3.84 15.76C4.86 16.42 5.81 17.89 6.69 20.17C7.99 20.13 8.64 19.42 8.64 18.04C8.64 17.28 8.33 16.35 7.71 15.25C7.11 14.13 6.45 13.09 5.73 12.13C5.01 11.15 4.34 10.06 3.72 8.86C3.12 7.64 2.82 6.56 2.82 5.62C2.82 4.1 3.43 2.9 4.65 2.02C5.89 1.14 7.28 0.699999 8.82 0.699999C10.36 0.699999 11.55 1.03 12.39 1.69C13.25 2.35 13.68 3.1 13.68 3.94C13.68 4.78 13.36 5.64 12.72 6.52C12.08 7.4 11.44 8.1 10.8 8.62L9.84 9.4C10.08 9.72 10.37 10.13 10.71 10.63C11.05 11.13 11.51 11.98 12.09 13.18C12.67 14.38 12.96 15.36 12.96 16.12ZM10.65 6.28C10.93 6.02 11.18 5.71 11.4 5.35C11.62 4.97 11.73 4.58 11.73 4.18C11.73 3.76 11.49 3.41 11.01 3.13C10.53 2.85 9.95 2.71 9.27 2.71C8.61 2.71 8.05 2.87 7.59 3.19C7.15 3.49 6.93 3.86 6.93 4.3C6.93 4.72 7.07 5.22 7.35 5.8C7.65 6.36 7.94 6.83 8.22 7.21L8.67 7.78C8.87 7.68 9.18 7.47 9.6 7.15C10.04 6.83 10.39 6.54 10.65 6.28ZM24.1767 9.07C24.1367 9.57 23.9667 10.15 23.6667 10.81C22.9067 10.73 22.1867 10.69 21.5067 10.69H20.9667C20.0467 15.15 19.5867 17.93 19.5867 19.03C19.5867 19.61 19.7067 19.9 19.9467 19.9C20.2067 19.9 20.8767 19.65 21.9567 19.15L22.4967 20.14C20.7167 21.62 19.0667 22.36 17.5467 22.36C16.8467 22.36 16.2667 22.14 15.8067 21.7C15.3667 21.26 15.1467 20.68 15.1467 19.96C15.1467 19.22 15.2267 18.39 15.3867 17.47C15.5667 16.55 15.8067 15.43 16.1067 14.11C16.4067 12.77 16.6267 11.69 16.7667 10.87C16.0267 10.93 15.4767 10.99 15.1167 11.05C15.0767 10.81 15.0567 10.49 15.0567 10.09C15.0567 9.67 15.0867 9.33 15.1467 9.07H17.0367C17.1967 7.99 17.2767 6.97 17.2767 6.01L17.2467 5.08V4.99C18.8067 4.45 20.2767 4.18 21.6567 4.18C21.7367 4.58 21.7767 5.08 21.7767 5.68C21.7767 6.28 21.6067 7.41 21.2667 9.07H24.1767ZM32.5744 9.58C32.6144 9.54 32.7244 9.28 32.9044 8.8C33.8444 8.8 35.1044 9.08 36.6844 9.64C36.1844 11.3 35.7844 13.04 35.4844 14.86C35.1844 16.66 35.0344 17.95 35.0344 18.73C35.0344 19.49 35.1144 19.87 35.2744 19.87C35.3944 19.87 35.8344 19.68 36.5944 19.3L36.9544 19.12L37.4944 20.17C37.3144 20.33 37.0744 20.53 36.7744 20.77C36.4944 21.01 35.9544 21.34 35.1544 21.76C34.3544 22.16 33.6344 22.36 32.9944 22.36C31.7544 22.36 31.0344 21.8 30.8344 20.68C29.5544 21.8 28.3944 22.36 27.3544 22.36C26.3344 22.36 25.4644 21.96 24.7444 21.16C24.0444 20.36 23.6944 19.1 23.6944 17.38C23.6944 14.7 24.2444 12.59 25.3444 11.05C26.4444 9.49 27.7744 8.71 29.3344 8.71C30.4544 8.71 31.5344 9 32.5744 9.58ZM29.1544 19.81C29.6344 19.81 30.1744 19.62 30.7744 19.24C30.9144 16.42 31.3844 13.63 32.1844 10.87C31.5844 10.61 31.0744 10.48 30.6544 10.48C29.9344 10.48 29.3144 11.19 28.7944 12.61C28.2944 14.01 28.0444 15.56 28.0444 17.26C28.0444 18.96 28.4144 19.81 29.1544 19.81ZM38.6484 22.09H38.4384C38.3984 21.93 38.3784 21.57 38.3784 21.01C38.3784 20.43 38.6484 18.89 39.1884 16.39C39.7284 13.89 39.9984 12.46 39.9984 12.1C39.9984 11.48 39.7184 10.8 39.1584 10.06L38.8884 9.7L38.9184 9.31C39.9984 9.01 41.7284 8.86 44.1084 8.86C44.3484 9.38 44.4684 10.11 44.4684 11.05C44.6884 10.69 45.1484 10.21 45.8484 9.61C46.5484 9.01 47.2684 8.71 48.0084 8.71C49.0884 8.71 49.6284 9.65 49.6284 11.53C49.5284 11.65 49.3884 11.81 49.2084 12.01C49.0484 12.19 48.7084 12.45 48.1884 12.79C47.6884 13.13 47.1984 13.34 46.7184 13.42C46.6984 13.42 46.5284 13.15 46.2084 12.61C45.8884 12.07 45.6484 11.8 45.4884 11.8C44.9884 11.98 44.5484 12.28 44.1684 12.7C43.2484 16.84 42.7884 19.52 42.7884 20.74C42.7884 21.18 42.7984 21.49 42.8184 21.67C42.1184 21.95 40.7284 22.09 38.6484 22.09ZM58.9521 9.07C58.9121 9.57 58.7421 10.15 58.4421 10.81C57.6821 10.73 56.9621 10.69 56.2821 10.69H55.7421C54.8221 15.15 54.3621 17.93 54.3621 19.03C54.3621 19.61 54.4821 19.9 54.7221 19.9C54.9821 19.9 55.6521 19.65 56.7321 19.15L57.2721 20.14C55.4921 21.62 53.8421 22.36 52.3221 22.36C51.6221 22.36 51.0421 22.14 50.5821 21.7C50.1421 21.26 49.9221 20.68 49.9221 19.96C49.9221 19.22 50.0021 18.39 50.1621 17.47C50.3421 16.55 50.5821 15.43 50.8821 14.11C51.1821 12.77 51.4021 11.69 51.5421 10.87C50.8021 10.93 50.2521 10.99 49.8921 11.05C49.8521 10.81 49.8321 10.49 49.8321 10.09C49.8321 9.67 49.8621 9.33 49.9221 9.07H51.8121C51.9721 7.99 52.0521 6.97 52.0521 6.01L52.0221 5.08V4.99C53.5821 4.45 55.0521 4.18 56.4321 4.18C56.5121 4.58 56.5521 5.08 56.5521 5.68C56.5521 6.28 56.3821 7.41 56.0421 9.07H58.9521ZM65.2256 22.09H64.6556C64.6556 21.15 64.9356 19.35 65.4956 16.69C66.0756 14.03 66.3656 12.52 66.3656 12.16C66.3656 11.5 66.0856 10.8 65.5256 10.06L65.2556 9.7L65.2856 9.31C66.3656 9.01 68.0956 8.86 70.4756 8.86C70.7356 9.2 70.8756 9.82 70.8956 10.72C72.6356 9.38 74.1056 8.71 75.3056 8.71C76.0256 8.71 76.5956 8.96 77.0156 9.46C77.4556 9.96 77.6756 10.59 77.6756 11.35C77.6756 12.09 77.4456 13.38 76.9856 15.22C76.5256 17.06 76.2956 18.3 76.2956 18.94C76.2956 19.56 76.3756 19.87 76.5356 19.87C76.6556 19.87 77.0756 19.68 77.7956 19.3L78.1556 19.12L78.6956 20.17C78.5156 20.33 78.2756 20.53 77.9756 20.77C77.6756 21.01 77.1156 21.34 76.2956 21.76C75.4956 22.16 74.7756 22.36 74.1356 22.36C72.6756 22.36 71.9456 21.53 71.9456 19.87C71.9456 19.17 72.1656 17.88 72.6056 16C73.0656 14.12 73.2956 12.91 73.2956 12.37C73.2956 11.83 73.1256 11.56 72.7856 11.56C72.2056 11.56 71.4956 11.81 70.6556 12.31C70.5956 12.65 70.3956 13.55 70.0556 15.01C69.3556 18.15 69.0056 20.37 69.0056 21.67C68.3056 21.95 67.0456 22.09 65.2256 22.09ZM83.85 22.36C82.47 22.36 81.39 21.88 80.61 20.92C79.83 19.94 79.44 18.58 79.44 16.84C79.44 14.62 80.03 12.71 81.21 11.11C82.41 9.51 84.06 8.71 86.16 8.71L87.24 8.77C87.58 8.59 87.96 8.5 88.38 8.5C89.96 8.5 90.75 9.99 90.75 12.97C91.57 12.93 92.4 12.82 93.24 12.64L93.72 12.52L93.9 13.69C93.24 13.97 92.35 14.22 91.23 14.44L90.63 14.56C90.25 16.66 89.48 18.49 88.32 20.05C87.16 21.59 85.67 22.36 83.85 22.36ZM85.47 19.78C86.31 19.78 87.06 19.24 87.72 18.16C88.4 17.08 88.87 15.94 89.13 14.74C86.99 14.74 85.92 13.94 85.92 12.34C85.92 11.7 86.05 11.1 86.31 10.54L86.46 10.24C86.38 10.2 86.28 10.18 86.16 10.18C86.04 10.18 85.95 10.2 85.89 10.24C85.39 10.56 84.92 11.31 84.48 12.49C84.04 13.67 83.82 15.02 83.82 16.54C83.82 18.7 84.37 19.78 85.47 19.78ZM92.5854 19.54L92.9154 11.71C92.9154 11.03 92.5554 10.33 91.8354 9.61L91.8954 9.25C92.0354 9.21 92.1654 9.18 92.2854 9.16C92.4254 9.12 92.5754 9.08 92.7354 9.04C92.9154 9 93.1154 8.96 93.3354 8.92C93.5554 8.88 93.7854 8.84 94.0254 8.8C94.5854 8.74 95.1054 8.71 95.5854 8.71C96.0854 8.71 96.5054 8.91 96.8454 9.31C97.2054 9.71 97.3854 10.35 97.3854 11.23C97.3854 12.09 97.2454 13.33 96.9654 14.95C96.7054 16.55 96.5754 17.75 96.5754 18.55C96.5754 19.33 96.7654 19.72 97.1454 19.72C97.7654 19.72 98.4454 19.33 99.1854 18.55C99.2054 18.23 99.3354 17.21 99.5754 15.49C99.8154 13.77 99.9354 12.52 99.9354 11.74C99.9354 10.96 99.8754 10.29 99.7554 9.73C101.295 9.15 102.675 8.86 103.895 8.86C104.155 9.04 104.285 9.63 104.285 10.63C104.285 11.61 104.115 12.98 103.775 14.74C103.435 16.48 103.265 17.75 103.265 18.55C103.265 19.33 103.425 19.72 103.745 19.72C104.505 19.72 105.335 19.16 106.235 18.04C107.135 16.9 107.615 15.95 107.675 15.19L105.635 12.91C105.715 12.05 105.925 11.27 106.265 10.57C106.605 9.87 106.925 9.38 107.225 9.1L107.645 8.71C108.505 8.71 109.155 8.94 109.595 9.4C110.035 9.86 110.255 10.4 110.255 11.02C110.255 12.6 109.865 14.27 109.085 16.03C108.305 17.79 107.255 19.29 105.935 20.53C104.615 21.75 103.275 22.36 101.915 22.36C101.235 22.36 100.655 22.17 100.175 21.79C99.7154 21.39 99.4054 20.88 99.2454 20.26C97.8454 21.66 96.4854 22.36 95.1654 22.36C94.2854 22.36 93.6354 22.09 93.2154 21.55C92.7954 20.99 92.5854 20.32 92.5854 19.54Z" fill="white"/>
</svg>
