<svg width="24" height="41" viewBox="0 0 24 41" fill="none" xmlns="http://www.w3.org/2000/svg">
<path d="M0 4C0 1.79086 1.79086 0 4 0H20C22.2091 0 24 1.79086 24 4V27.7212C24 28.8067 23.5588 29.8457 22.7776 30.5995L14.7776 38.3196C13.2278 39.8151 10.7722 39.8151 9.22238 38.3196L1.22238 30.5995C0.441223 29.8457 0 28.8067 0 27.7212V4Z" fill="white"/>
<path d="M3 12C3 9.79086 4.79086 8 7 8H17C19.2091 8 21 9.79086 21 12V25.7988C21 26.9015 20.5448 27.9553 19.7419 28.7112L14.7419 33.4186C13.2016 34.8687 10.7984 34.8687 9.25808 33.4186L4.25809 28.7112C3.45522 27.9553 3 26.9015 3 25.7988L3 12Z" fill="#3F3F46"/>
<rect x="7" y="23" width="10" height="1" rx="0.5" fill="white"/>
<rect x="7" y="19" width="10" height="1" rx="0.5" fill="white"/>
<rect x="7" y="15" width="10" height="1" rx="0.5" fill="white"/>
</svg>
