<svg width="163" height="35" viewBox="0 0 163 35" fill="none" xmlns="http://www.w3.org/2000/svg">
<path d="M42.848 25V8.08H54.104V10.528H45.8V15.184H53.576V17.632H45.8V22.552H54.104V25H42.848ZM60.6271 25.24C59.7791 25.24 59.0191 25.08 58.3471 24.76C57.6911 24.424 57.1711 23.976 56.7871 23.416C56.4191 22.856 56.2351 22.224 56.2351 21.52C56.2351 20.656 56.4591 19.976 56.9071 19.48C57.3551 18.968 58.0831 18.6 59.0911 18.376C60.0991 18.152 61.4511 18.04 63.1471 18.04H63.9871V17.536C63.9871 16.736 63.8111 16.16 63.4591 15.808C63.1071 15.456 62.5151 15.28 61.6831 15.28C61.0271 15.28 60.3551 15.384 59.6671 15.592C58.9791 15.784 58.2831 16.088 57.5791 16.504L56.7151 14.464C57.1311 14.176 57.6191 13.928 58.1791 13.72C58.7551 13.496 59.3551 13.328 59.9791 13.216C60.6191 13.088 61.2191 13.024 61.7791 13.024C63.4911 13.024 64.7631 13.424 65.5951 14.224C66.4271 15.008 66.8431 16.232 66.8431 17.896V25H64.0351V23.128C63.7631 23.784 63.3311 24.304 62.7391 24.688C62.1471 25.056 61.4431 25.24 60.6271 25.24ZM61.2511 23.176C62.0351 23.176 62.6831 22.904 63.1951 22.36C63.7231 21.816 63.9871 21.128 63.9871 20.296V19.768H63.1711C61.6671 19.768 60.6191 19.888 60.0271 20.128C59.4511 20.352 59.1631 20.768 59.1631 21.376C59.1631 21.904 59.3471 22.336 59.7151 22.672C60.0831 23.008 60.5951 23.176 61.2511 23.176ZM74.1841 25.24C73.1921 25.24 72.2641 25.12 71.4001 24.88C70.5361 24.64 69.8161 24.296 69.2401 23.848L70.0081 21.88C70.6001 22.28 71.2641 22.592 72.0001 22.816C72.7361 23.024 73.4721 23.128 74.2081 23.128C74.9761 23.128 75.5441 23 75.9121 22.744C76.2961 22.472 76.4881 22.12 76.4881 21.688C76.4881 21.016 75.9921 20.584 75.0001 20.392L72.6001 19.936C70.5681 19.552 69.5521 18.496 69.5521 16.768C69.5521 16 69.7601 15.336 70.1761 14.776C70.6081 14.216 71.2001 13.784 71.9521 13.48C72.7041 13.176 73.5681 13.024 74.5441 13.024C75.3761 13.024 76.1761 13.144 76.9441 13.384C77.7121 13.608 78.3681 13.952 78.9121 14.416L78.0961 16.384C77.6321 16 77.0721 15.696 76.4161 15.472C75.7761 15.248 75.1601 15.136 74.5681 15.136C73.7841 15.136 73.2001 15.272 72.8161 15.544C72.4481 15.816 72.2641 16.176 72.2641 16.624C72.2641 17.328 72.7201 17.76 73.6321 17.92L76.0321 18.376C77.0721 18.568 77.8561 18.92 78.3841 19.432C78.9281 19.944 79.2001 20.632 79.2001 21.496C79.2001 22.664 78.7441 23.584 77.8321 24.256C76.9201 24.912 75.7041 25.24 74.1841 25.24ZM82.4285 29.32L84.5885 24.52L79.7165 13.264H82.9085L86.1965 21.472L89.5565 13.264H92.5805L85.5245 29.32H82.4285ZM99.7173 25L92.1813 8.08H95.4693L101.061 21.064L106.653 8.08H109.821L102.285 25H99.7173ZM110.923 10.744V7.816H114.283V10.744H110.923ZM111.115 25V13.264H114.115V25H111.115ZM121.744 25.24C120.72 25.24 119.816 24.992 119.032 24.496C118.264 24 117.664 23.296 117.232 22.384C116.8 21.456 116.584 20.368 116.584 19.12C116.584 17.856 116.8 16.776 117.232 15.88C117.664 14.968 118.264 14.264 119.032 13.768C119.816 13.272 120.72 13.024 121.744 13.024C122.576 13.024 123.328 13.208 124 13.576C124.672 13.944 125.176 14.432 125.512 15.04V8.08H128.512V25H125.584V23.056C125.264 23.728 124.76 24.264 124.072 24.664C123.384 25.048 122.608 25.24 121.744 25.24ZM122.584 22.96C123.48 22.96 124.2 22.64 124.744 22C125.288 21.344 125.56 20.384 125.56 19.12C125.56 17.84 125.288 16.888 124.744 16.264C124.2 15.624 123.48 15.304 122.584 15.304C121.688 15.304 120.968 15.624 120.424 16.264C119.88 16.888 119.608 17.84 119.608 19.12C119.608 20.384 119.88 21.344 120.424 22C120.968 22.64 121.688 22.96 122.584 22.96ZM137.407 25.24C136.079 25.24 134.935 24.992 133.975 24.496C133.015 24 132.271 23.296 131.743 22.384C131.231 21.472 130.975 20.392 130.975 19.144C130.975 17.928 131.223 16.864 131.719 15.952C132.231 15.04 132.927 14.328 133.807 13.816C134.703 13.288 135.719 13.024 136.855 13.024C138.519 13.024 139.831 13.552 140.791 14.608C141.767 15.664 142.255 17.104 142.255 18.928V19.816H133.855C134.079 21.912 135.279 22.96 137.455 22.96C138.111 22.96 138.767 22.864 139.423 22.672C140.079 22.464 140.679 22.144 141.223 21.712L142.062 23.728C141.503 24.192 140.799 24.56 139.951 24.832C139.103 25.104 138.255 25.24 137.407 25.24ZM136.975 15.064C136.095 15.064 135.383 15.336 134.839 15.88C134.295 16.424 133.967 17.16 133.855 18.088H139.759C139.695 17.112 139.423 16.368 138.943 15.856C138.479 15.328 137.823 15.064 136.975 15.064ZM149.982 25.24C148.766 25.24 147.71 24.992 146.814 24.496C145.918 24 145.222 23.296 144.726 22.384C144.23 21.456 143.982 20.368 143.982 19.12C143.982 17.872 144.23 16.792 144.726 15.88C145.222 14.968 145.918 14.264 146.814 13.768C147.71 13.272 148.766 13.024 149.982 13.024C151.198 13.024 152.254 13.272 153.15 13.768C154.046 14.264 154.742 14.968 155.238 15.88C155.734 16.792 155.982 17.872 155.982 19.12C155.982 20.368 155.734 21.456 155.238 22.384C154.742 23.296 154.046 24 153.15 24.496C152.254 24.992 151.198 25.24 149.982 25.24ZM149.982 22.96C150.878 22.96 151.598 22.64 152.142 22C152.686 21.344 152.958 20.384 152.958 19.12C152.958 17.84 152.686 16.888 152.142 16.264C151.598 15.624 150.878 15.304 149.982 15.304C149.086 15.304 148.366 15.624 147.822 16.264C147.278 16.888 147.006 17.84 147.006 19.12C147.006 20.384 147.278 21.344 147.822 22C148.366 22.64 149.086 22.96 149.982 22.96Z" fill="white"/>
<path d="M157.773 25V21.664H161.133V25H157.773Z" fill="#4F46E5"/>
<rect y="7.24683" width="28" height="28" rx="8" transform="rotate(-15 0 7.24683)" fill="#4F46E5"/>
<mask id="mask0_97_19" style="mask-type:alpha" maskUnits="userSpaceOnUse" x="11" y="8" width="16" height="8">
<rect x="12.6641" y="8.14624" width="14.1829" height="3.57344" transform="rotate(15 12.6641 8.14624)" fill="#D9D9D9"/>
</mask>
<g mask="url(#mask0_97_19)">
<path d="M24.6513 11.3582L22.3475 10.7409L22.3136 10.7605L18.0049 13.2481L20.4692 13.9084L20.5031 13.8888L24.8043 11.4078C24.7549 11.3888 24.7048 11.3725 24.6513 11.3582ZM25.446 15.242L25.9049 13.5295C26.0131 13.1255 25.9717 12.7129 25.8171 12.3589L22.2887 14.396L25.446 15.242ZM20.5333 10.2548L18.0663 9.59377L18.0324 9.61336L13.7237 12.101L16.188 12.7613L16.222 12.7417L20.5307 10.2541L20.5333 10.2548ZM14.3765 8.60509C13.432 8.35201 12.4583 8.91417 12.2052 9.8587L11.7464 11.5712L11.9096 11.6149L11.9435 11.5953L16.2522 9.10768L14.3765 8.60509ZM25.2166 16.0982L11.5169 12.4274L9.91095 18.421C9.65787 19.3655 10.22 20.3392 11.1646 20.5923L21.4393 23.3454C22.3838 23.5985 23.3575 23.0363 23.6106 22.0918L25.2166 16.0982Z" fill="white"/>
</g>
<mask id="mask1_97_19" style="mask-type:alpha" maskUnits="userSpaceOnUse" x="7" y="12" width="17" height="15">
<rect x="11.1641" y="12.573" width="14.1829" height="8.03331" transform="rotate(30 11.1641 12.573)" fill="#D9D9D9"/>
</mask>
<g mask="url(#mask1_97_19)">
<path d="M24.099 14.9875L22.0335 13.795L21.9956 13.8051L17.1899 15.0928L19.3994 16.3684L19.4372 16.3583L24.234 15.075C24.1912 15.0439 24.147 15.0152 24.099 14.9875ZM23.8615 18.9446L24.7479 17.4093C24.9571 17.047 25.0238 16.6378 24.9661 16.2558L21.0307 17.3103L23.8615 18.9446ZM20.407 12.8559L18.1951 11.5789L18.1573 11.589L13.3515 12.8767L15.561 14.1524L15.5988 14.1422L20.4046 12.8545L20.407 12.8559ZM14.8869 9.6689C14.0401 9.17998 12.9541 9.47098 12.4651 10.3178L11.5787 11.8532L11.725 11.9377L11.7629 11.9275L16.5686 10.6398L14.8869 9.6689ZM23.4183 19.7123L11.1355 12.6208L8.03296 17.9946C7.54404 18.8414 7.83503 19.9274 8.68188 20.4163L17.894 25.7349C18.7408 26.2239 19.8268 25.9329 20.3157 25.086L23.4183 19.7123Z" fill="white"/>
</g>
</svg>
