<svg width="314" height="196" viewBox="0 0 314 196" fill="none" xmlns="http://www.w3.org/2000/svg">
<rect x="0.5" y="0.5" width="313" height="195" rx="11.5" fill="url(#paint0_linear_147_76)" stroke="url(#paint1_linear_147_76)"/>
<rect x="55" y="60" width="60" height="90" rx="8" fill="url(#paint2_linear_147_76)"/>
<path d="M51.2779 51.5671L57.2951 57.6803L65.7572 56.2763L59.644 62.2935L61.048 70.7556L55.0308 64.6424L46.5687 66.0464L52.6819 60.0292L51.2779 51.5671Z" fill="url(#paint3_linear_147_76)"/>
<path d="M56.835 124.759C56.9964 124.287 56.9569 123.843 56.7165 123.426C56.4795 123.01 56.0778 122.671 55.5112 122.407C55.1129 122.221 54.7432 122.122 54.4022 122.11C54.0613 122.097 53.7673 122.159 53.5202 122.295C53.2732 122.43 53.0864 122.629 52.9599 122.892C52.8575 123.112 52.8186 123.326 52.843 123.534C52.8709 123.743 52.946 123.945 53.0683 124.14C53.1923 124.331 53.3431 124.514 53.5208 124.689C53.6986 124.864 53.8836 125.027 54.0759 125.179L54.9498 125.887C55.3049 126.165 55.6294 126.469 55.9233 126.798C56.2206 127.129 56.4592 127.482 56.6391 127.858C56.8225 128.236 56.9209 128.635 56.9343 129.055C56.9477 129.475 56.848 129.913 56.6354 130.37C56.3476 130.988 55.9362 131.459 55.4012 131.782C54.8678 132.102 54.2408 132.255 53.5202 132.241C52.8046 132.226 52.0245 132.021 51.1798 131.628C50.3591 131.246 49.7057 130.787 49.2197 130.251C48.7371 129.717 48.4393 129.127 48.3265 128.481C48.217 127.837 48.3116 127.158 48.6104 126.445L50.4904 127.32C50.3468 127.701 50.3178 128.059 50.4034 128.396C50.489 128.732 50.6635 129.035 50.9269 129.304C51.1937 129.574 51.5263 129.802 51.9246 129.988C52.3401 130.181 52.7329 130.289 53.1029 130.311C53.478 130.331 53.8068 130.271 54.0893 130.131C54.3734 129.987 54.5875 129.765 54.7316 129.465C54.8561 129.188 54.881 128.924 54.8062 128.672C54.733 128.417 54.5818 128.162 54.3528 127.909C54.1288 127.655 53.8503 127.391 53.5174 127.119L52.4611 126.251C51.6963 125.624 51.167 124.966 50.8733 124.277C50.5847 123.587 50.6162 122.864 50.968 122.109C51.2574 121.487 51.6791 121.021 52.2331 120.711C52.7905 120.402 53.4211 120.255 54.1247 120.27C54.83 120.28 55.5518 120.458 56.2901 120.801C57.0386 121.15 57.6337 121.586 58.0754 122.109C58.522 122.631 58.7996 123.196 58.9081 123.807C59.0182 124.414 58.9401 125.017 58.6738 125.616L56.835 124.759ZM64.5122 128.015L63.8406 129.457L59.2925 127.339L59.9641 125.897L64.5122 128.015ZM61.9696 124.524L63.8341 125.393L60.3755 132.82C60.2588 133.071 60.207 133.28 60.2202 133.45C60.2384 133.617 60.2998 133.754 60.4045 133.861C60.5092 133.969 60.6388 134.058 60.7933 134.13C60.91 134.184 61.0205 134.225 61.1246 134.253C61.2322 134.282 61.3149 134.302 61.3728 134.312L61.0083 135.916C60.8927 135.904 60.7326 135.876 60.528 135.83C60.3268 135.787 60.0924 135.707 59.8248 135.591C59.3514 135.387 58.9635 135.121 58.6612 134.792C58.3605 134.46 58.177 134.078 58.1107 133.646C58.0479 133.215 58.1333 132.754 58.367 132.261L61.9696 124.524ZM64.5897 137.872C64.0884 137.639 63.6784 137.339 63.3598 136.974C63.0462 136.606 62.855 136.191 62.7862 135.729C62.7209 135.268 62.8089 134.778 63.0504 134.26C63.2582 133.813 63.5125 133.483 63.8133 133.267C64.114 133.052 64.4477 132.924 64.8142 132.881C65.1808 132.839 65.5634 132.856 65.9621 132.933C66.3658 133.008 66.7696 133.115 67.1733 133.253C67.6593 133.42 68.0553 133.553 68.3613 133.649C68.6689 133.742 68.9072 133.778 69.0761 133.756C69.25 133.733 69.3785 133.632 69.4616 133.453L69.476 133.422C69.6567 133.034 69.6816 132.68 69.5507 132.36C69.4197 132.04 69.1379 131.78 68.7053 131.578C68.2486 131.365 67.8399 131.296 67.4793 131.371C67.1222 131.447 66.8341 131.599 66.6151 131.827L64.9892 130.769C65.3505 130.352 65.7642 130.056 66.2304 129.88C66.6982 129.701 67.198 129.637 67.7299 129.689C68.2634 129.736 68.8065 129.889 69.3594 130.147C69.7405 130.324 70.0992 130.545 70.4353 130.811C70.7715 131.076 71.0478 131.384 71.2643 131.736C71.4825 132.084 71.6044 132.477 71.6302 132.915C71.6594 133.355 71.5517 133.837 71.307 134.363L68.8413 139.658L67.0489 138.823L67.555 137.736L67.4932 137.707C67.2775 137.874 67.0219 138.006 66.7263 138.103C66.4358 138.197 66.1088 138.231 65.7454 138.204C65.387 138.175 65.0018 138.064 64.5897 137.872ZM65.7119 136.728C66.0862 136.902 66.4451 136.979 66.7885 136.959C67.1336 136.936 67.4375 136.835 67.7003 136.657C67.9665 136.48 68.1676 136.246 68.3035 135.954L68.7376 135.022C68.6569 135.042 68.5365 135.041 68.3765 135.016C68.22 134.994 68.0487 134.958 67.8626 134.909C67.6765 134.86 67.4937 134.808 67.3143 134.754C67.1348 134.699 66.9793 134.652 66.8477 134.612C66.552 134.52 66.2742 134.466 66.0145 134.449C65.7547 134.433 65.5254 134.472 65.3264 134.567C65.129 134.659 64.9743 134.826 64.8624 135.066C64.7025 135.409 64.7071 135.727 64.8762 136.019C65.0453 136.311 65.3239 136.547 65.7119 136.728ZM70.7162 140.531L74.4003 132.619L76.2082 133.461L75.5942 134.78L75.6766 134.818C76.0335 134.429 76.4446 134.192 76.91 134.108C77.3804 134.022 77.8423 134.084 78.2955 134.295C78.3986 134.343 78.5112 134.402 78.6334 134.471C78.7607 134.539 78.8633 134.601 78.9412 134.659L78.1425 136.374C78.0763 136.31 77.9621 136.227 77.8 136.127C77.643 136.024 77.4855 135.936 77.3275 135.863C76.9875 135.704 76.6476 135.636 76.3075 135.657C75.9725 135.677 75.6678 135.779 75.3934 135.965C75.1189 136.15 74.9033 136.411 74.7466 136.748L72.5808 141.399L70.7162 140.531ZM84.5267 137.335L83.8551 138.777L79.307 136.659L79.9786 135.217L84.5267 137.335ZM81.9841 133.844L83.8487 134.713L80.39 142.14C80.2733 142.391 80.2215 142.6 80.2347 142.77C80.2529 142.937 80.3144 143.074 80.419 143.181C80.5237 143.289 80.6533 143.378 80.8078 143.45C80.9246 143.504 81.035 143.545 81.1391 143.573C81.2467 143.602 81.3295 143.622 81.3874 143.632L81.0228 145.236C80.9072 145.224 80.7471 145.196 80.5425 145.15C80.3413 145.107 80.1069 145.027 79.8393 144.911C79.3659 144.707 78.9781 144.441 78.6757 144.112C78.375 143.78 78.1915 143.398 78.1252 142.966C78.0624 142.535 78.1478 142.074 78.3815 141.581L81.9841 133.844Z" fill="white"/>
<rect x="127.5" y="43.5" width="59" height="89" rx="7.5" fill="url(#paint4_linear_147_76)" stroke="#0066FF"/>
<path d="M178.596 33.5194C179.337 33.9473 179.587 34.8977 179.154 35.6462L178.283 37.1558C178.345 37.203 178.403 37.2477 178.463 37.2991C178.477 37.313 178.49 37.3202 178.504 37.3341L180.299 38.8667C180.95 39.4227 181.023 40.407 180.467 41.0612C179.911 41.7153 178.928 41.8021 178.282 41.2485L176.505 39.7322C175.307 38.7809 174.075 38.2447 173.075 38.1013C172.074 37.9578 171.489 38.2175 171.174 38.5884C170.829 38.9925 170.746 39.2825 170.727 39.48C170.707 39.6885 170.754 39.964 170.94 40.3477C171.362 41.1942 172.238 42.0947 173.385 43.2417L173.486 43.3456C174.499 44.3585 175.74 45.5937 176.413 46.9412C176.781 47.6778 177.034 48.5346 176.952 49.4795C176.871 50.4419 176.458 51.3312 175.775 52.1376C174.558 53.5776 172.841 54.0183 171.155 53.7949C170.445 53.7005 169.733 53.4925 169.028 53.1866L168.217 54.5905C167.785 55.339 166.837 55.5979 166.096 55.17C165.354 54.742 165.105 53.7916 165.537 53.0431L166.389 51.5674C166.375 51.5535 166.354 51.5414 166.339 51.5275L166.331 51.5226C165.402 50.772 163.979 49.3585 163.141 48.1983C162.643 47.5045 162.799 46.5288 163.493 46.0221C164.188 45.5154 165.158 45.6636 165.656 46.3574C166.304 47.2559 167.52 48.4767 168.278 49.0889C169.499 50.0589 170.666 50.5806 171.59 50.7022C172.466 50.8191 173.033 50.5824 173.418 50.1281C173.756 49.7258 173.842 49.4316 173.861 49.234C173.879 49.019 173.832 48.7434 173.642 48.3573C173.216 47.5084 172.336 46.6055 171.185 45.4561L171.085 45.3588C170.077 44.3483 168.838 43.1089 168.164 41.7614C167.797 41.0248 167.55 40.1662 167.632 39.2213C167.717 38.2613 168.134 37.3745 168.822 36.5705C170.056 35.1292 171.859 34.772 173.535 35.0122C174.221 35.1097 174.921 35.3104 175.613 35.5916L176.474 34.0988C176.907 33.3504 177.854 33.0914 178.596 33.5194Z" fill="white"/>
<path d="M138.564 141.67L134.833 130.647L138.967 129.248C139.814 128.962 140.577 128.879 141.258 129.001C141.943 129.121 142.526 129.408 143.007 129.861C143.49 130.309 143.851 130.883 144.087 131.582C144.327 132.289 144.39 132.967 144.278 133.617C144.166 134.267 143.873 134.848 143.399 135.361C142.923 135.869 142.26 136.268 141.41 136.555L138.67 137.483L138.115 135.841L140.585 135.005C141.08 134.837 141.456 134.614 141.714 134.335C141.971 134.056 142.124 133.74 142.173 133.388C142.225 133.034 142.185 132.662 142.053 132.271C141.921 131.88 141.727 131.561 141.472 131.316C141.22 131.069 140.907 130.917 140.532 130.86C140.159 130.798 139.723 130.852 139.225 131.021L137.395 131.64L140.56 140.994L138.564 141.67ZM148.231 138.398L145.433 130.131L147.322 129.492L147.789 130.87L147.875 130.84C147.864 130.312 147.998 129.857 148.276 129.475C148.557 129.088 148.935 128.814 149.408 128.654C149.516 128.618 149.638 128.582 149.774 128.548C149.913 128.509 150.03 128.483 150.126 128.471L150.733 130.263C150.64 130.262 150.501 130.282 150.314 130.321C150.13 130.355 149.955 130.4 149.79 130.456C149.435 130.576 149.142 130.762 148.911 131.012C148.682 131.257 148.532 131.542 148.462 131.866C148.391 132.189 148.416 132.527 148.535 132.879L150.179 137.738L148.231 138.398ZM157.56 135.421C156.753 135.694 155.993 135.753 155.281 135.598C154.569 135.443 153.941 135.102 153.399 134.574C152.859 134.044 152.445 133.353 152.156 132.499C151.867 131.645 151.776 130.842 151.881 130.09C151.99 129.338 152.281 128.683 152.753 128.128C153.225 127.572 153.864 127.158 154.671 126.885C155.479 126.612 156.238 126.552 156.951 126.707C157.663 126.862 158.289 127.206 158.829 127.739C159.373 128.271 159.79 128.964 160.079 129.817C160.368 130.671 160.457 131.473 160.347 132.222C160.24 132.97 159.951 133.622 159.479 134.177C159.007 134.733 158.367 135.147 157.56 135.421ZM157.043 133.856C157.48 133.708 157.806 133.464 158.019 133.124C158.23 132.78 158.339 132.38 158.344 131.922C158.352 131.463 158.272 130.983 158.102 130.481C157.93 129.975 157.702 129.542 157.417 129.183C157.133 128.819 156.803 128.565 156.427 128.42C156.05 128.276 155.643 128.278 155.205 128.426C154.756 128.577 154.425 128.826 154.209 129.171C153.998 129.514 153.888 129.917 153.881 130.379C153.876 130.837 153.959 131.319 154.13 131.825C154.3 132.327 154.526 132.758 154.808 133.119C155.093 133.478 155.424 133.73 155.801 133.874C156.18 134.014 156.594 134.008 157.043 133.856Z" fill="white"/>
<path d="M133.711 59.5074C133.207 59.2447 132.806 58.9151 132.506 58.5186C132.208 58.1196 132.029 57.6927 131.968 57.2381C131.91 56.7847 131.984 56.34 132.193 55.9039L133.553 56.6133C133.413 56.9438 133.415 57.2748 133.559 57.6064C133.704 57.9355 133.952 58.1913 134.302 58.3739C134.577 58.5171 134.854 58.5815 135.134 58.5672C135.414 58.553 135.674 58.4659 135.914 58.3061C136.154 58.1463 136.348 57.9221 136.496 57.6337C136.65 57.3428 136.724 57.0511 136.716 56.7588C136.709 56.4664 136.629 56.1988 136.477 55.956C136.326 55.7108 136.108 55.5139 135.823 55.3655C135.593 55.2421 135.343 55.166 135.072 55.1373C134.802 55.1085 134.564 55.1318 134.358 55.207L133.201 54.3391L135.686 50.56L140.175 52.9009L139.564 54.0722L136.235 52.3362L134.942 54.2716L134.988 54.2953C135.219 54.2014 135.495 54.1673 135.815 54.1931C136.136 54.2164 136.453 54.3095 136.765 54.4724C137.233 54.7167 137.594 55.0456 137.846 55.4591C138.099 55.87 138.231 56.3234 138.242 56.8191C138.253 57.3149 138.128 57.8108 137.87 58.3071C137.603 58.8184 137.247 59.2126 136.801 59.4896C136.359 59.7654 135.87 59.9089 135.332 59.9201C134.798 59.93 134.258 59.7925 133.711 59.5074ZM138.364 61.905C138.135 61.7855 137.98 61.6024 137.901 61.3558C137.821 61.1092 137.843 60.8707 137.966 60.6403C138.082 60.4122 138.264 60.2603 138.511 60.1845C138.759 60.1087 138.998 60.1305 139.227 60.2501C139.449 60.3657 139.599 60.5468 139.679 60.7934C139.761 61.0413 139.744 61.2793 139.629 61.5073C139.546 61.6596 139.433 61.7784 139.289 61.8636C139.148 61.9502 138.994 61.9984 138.829 62.0083C138.668 62.0169 138.513 61.9825 138.364 61.905ZM147.298 56.4815C147.667 56.6771 147.994 56.9304 148.277 57.2415C148.564 57.5514 148.773 57.9235 148.906 58.3577C149.039 58.7895 149.064 59.288 148.981 59.8533C148.898 60.4186 148.672 61.0539 148.304 61.7593C147.96 62.4256 147.58 62.9832 147.163 63.4323C146.75 63.8802 146.317 64.2152 145.865 64.4375C145.412 64.6598 144.951 64.7681 144.479 64.7626C144.008 64.7571 143.539 64.6329 143.073 64.3898C142.585 64.135 142.201 63.8133 141.923 63.4248C141.648 63.0377 141.481 62.6174 141.422 62.164C141.364 61.7107 141.42 61.2561 141.591 60.8003L142.97 61.5195C142.88 61.8636 142.896 62.1828 143.018 62.4772C143.144 62.7703 143.373 63.0036 143.706 63.177C144.242 63.4568 144.777 63.4392 145.31 63.1243C145.842 62.8094 146.325 62.2375 146.757 61.4088L146.704 61.3812C146.465 61.5385 146.205 61.6465 145.925 61.7053C145.645 61.7615 145.359 61.7674 145.065 61.723C144.773 61.6799 144.489 61.5861 144.212 61.4416C143.758 61.2051 143.407 60.884 143.157 60.4782C142.91 60.0737 142.779 59.6274 142.764 59.1392C142.752 58.6523 142.872 58.1652 143.123 57.6777C143.386 57.1739 143.737 56.7822 144.178 56.5025C144.622 56.2217 145.114 56.0744 145.653 56.0607C146.193 56.0446 146.742 56.1848 147.298 56.4815ZM146.711 57.617C146.439 57.4751 146.159 57.4138 145.87 57.433C145.585 57.451 145.32 57.5405 145.076 57.7015C144.836 57.8613 144.643 58.0798 144.499 58.3569C144.358 58.6327 144.29 58.9143 144.294 59.2015C144.3 59.4901 144.375 59.755 144.519 59.9964C144.664 60.239 144.875 60.4319 145.149 60.5751C145.353 60.6815 145.564 60.7417 145.781 60.7555C145.998 60.7694 146.208 60.7412 146.411 60.671C146.618 60.5996 146.805 60.4935 146.971 60.3527C147.14 60.2133 147.275 60.0434 147.376 59.8431C147.514 59.5786 147.579 59.3014 147.57 59.0116C147.563 58.723 147.487 58.4542 147.341 58.2052C147.198 57.9576 146.988 57.7615 146.711 57.617ZM154.198 60.0796C154.567 60.2753 154.893 60.5286 155.176 60.8397C155.463 61.1495 155.673 61.5216 155.805 61.9559C155.939 62.3877 155.964 62.8862 155.88 63.4515C155.797 64.0168 155.572 64.6521 155.204 65.3574C154.859 66.0237 154.479 66.5814 154.062 67.0305C153.649 67.4783 153.216 67.8134 152.764 68.0356C152.312 68.2579 151.85 68.3663 151.379 68.3608C150.907 68.3553 150.439 68.231 149.973 67.988C149.484 67.7331 149.101 67.4115 148.823 67.023C148.547 66.6358 148.38 66.2155 148.322 65.7622C148.263 65.3088 148.32 64.8542 148.49 64.3984L149.869 65.1177C149.779 65.4618 149.795 65.781 149.918 66.0753C150.043 66.3685 150.273 66.6017 150.605 66.7751C151.142 67.0549 151.676 67.0374 152.209 66.7225C152.742 66.4075 153.224 65.8357 153.656 65.007L153.603 64.9794C153.364 65.1367 153.105 65.2447 152.824 65.3034C152.545 65.3597 152.258 65.3656 151.964 65.3212C151.673 65.2781 151.388 65.1843 151.111 65.0398C150.658 64.8033 150.306 64.4822 150.056 64.0764C149.809 63.6719 149.678 63.2256 149.664 62.7374C149.652 62.2505 149.771 61.7633 150.022 61.2759C150.285 60.7721 150.637 60.3804 151.077 60.1007C151.522 59.8198 152.014 59.6726 152.553 59.6589C153.093 59.6427 153.641 59.783 154.198 60.0796ZM153.61 61.2151C153.338 61.0732 153.058 61.0119 152.769 61.0311C152.484 61.0491 152.22 61.1386 151.976 61.2997C151.735 61.4595 151.543 61.6779 151.398 61.955C151.258 62.2309 151.189 62.5125 151.193 62.7997C151.2 63.0882 151.275 63.3532 151.418 63.5945C151.564 63.8372 151.774 64.0301 152.048 64.1733C152.253 64.2797 152.463 64.3398 152.68 64.3537C152.897 64.3676 153.107 64.3394 153.311 64.2692C153.518 64.1977 153.704 64.0916 153.871 63.9509C154.039 63.8114 154.175 63.6416 154.276 63.4413C154.414 63.1768 154.478 62.8996 154.469 62.6097C154.463 62.3212 154.387 62.0524 154.241 61.8034C154.098 61.5557 153.888 61.3596 153.61 61.2151Z" fill="white"/>
<rect x="199" y="73" width="60" height="90" rx="8" fill="url(#paint5_linear_147_76)"/>
<path d="M198.075 154.069L202.107 158.706L208.219 158.075L203.583 162.107L204.214 168.219L200.181 163.583L194.069 164.214L198.705 160.181L198.075 154.069Z" fill="url(#paint6_linear_147_76)"/>
<path d="M225.128 143.798L228.09 132.545L235.409 134.471L234.959 136.18L229.678 134.79L228.874 137.845L233.776 139.135L233.326 140.844L228.425 139.554L227.616 142.626L232.94 144.027L232.491 145.736L225.128 143.798ZM238.286 138.237L239.17 141.801L241.72 139.141L243.825 139.695L240.17 143.245L241.647 148.146L239.554 147.595L238.568 144.087L235.999 146.659L233.889 146.104L237.571 142.561L236.176 137.682L238.286 138.237ZM242.309 151.705L245.363 140.1L247.32 140.615L246.952 142.01L247.068 142.041C247.224 141.863 247.426 141.683 247.674 141.501C247.922 141.316 248.228 141.183 248.59 141.102C248.953 141.017 249.382 141.04 249.876 141.17C250.528 141.342 251.072 141.663 251.508 142.134C251.949 142.603 252.238 143.202 252.375 143.931C252.517 144.658 252.464 145.49 252.217 146.428C251.973 147.355 251.614 148.102 251.139 148.67C250.664 149.239 250.12 149.624 249.507 149.827C248.893 150.03 248.255 150.044 247.592 149.87C247.109 149.742 246.729 149.556 246.452 149.311C246.176 149.066 245.971 148.804 245.836 148.526C245.707 148.245 245.616 147.988 245.563 147.755L245.481 147.733L244.298 152.228L242.309 151.705ZM246.203 144.833C246.06 145.379 246.011 145.877 246.057 146.328C246.106 146.78 246.247 147.16 246.479 147.467C246.716 147.773 247.045 147.981 247.467 148.092C247.906 148.207 248.305 148.187 248.664 148.031C249.023 147.871 249.332 147.605 249.59 147.235C249.853 146.861 250.054 146.411 250.192 145.883C250.33 145.359 250.378 144.874 250.335 144.428C250.291 143.982 250.152 143.605 249.916 143.296C249.68 142.987 249.34 142.774 248.897 142.657C248.472 142.546 248.082 142.562 247.726 142.708C247.371 142.853 247.063 143.107 246.803 143.469C246.547 143.833 246.347 144.287 246.203 144.833ZM256.506 152.233C255.659 152.011 254.975 151.642 254.452 151.129C253.934 150.612 253.595 149.987 253.436 149.252C253.278 148.513 253.315 147.702 253.548 146.819C253.776 145.951 254.142 145.232 254.644 144.664C255.151 144.092 255.751 143.702 256.444 143.492C257.139 143.28 257.889 143.279 258.695 143.491C259.215 143.628 259.684 143.842 260.101 144.132C260.523 144.419 260.866 144.783 261.129 145.225C261.397 145.667 261.562 146.185 261.626 146.777C261.69 147.366 261.625 148.031 261.43 148.77L261.269 149.38L254.352 147.56L254.705 146.219L259.716 147.538C259.812 147.156 259.819 146.795 259.736 146.456C259.654 146.113 259.491 145.818 259.247 145.57C259.006 145.322 258.696 145.148 258.315 145.048C257.908 144.941 257.525 144.946 257.165 145.063C256.806 145.176 256.499 145.369 256.243 145.643C255.991 145.913 255.814 146.237 255.711 146.613L255.403 147.783C255.274 148.274 255.253 148.719 255.34 149.118C255.428 149.513 255.608 149.847 255.881 150.118C256.155 150.386 256.509 150.577 256.941 150.691C257.23 150.767 257.503 150.796 257.758 150.777C258.015 150.754 258.251 150.685 258.465 150.569C258.68 150.454 258.862 150.288 259.013 150.073L260.815 150.771C260.569 151.231 260.233 151.601 259.807 151.88C259.385 152.157 258.893 152.329 258.331 152.397C257.77 152.46 257.161 152.406 256.506 152.233ZM261.985 153.499L264.206 145.059L266.135 145.567L265.764 146.974L265.852 146.997C266.134 146.55 266.497 146.244 266.94 146.079C267.388 145.911 267.853 145.89 268.337 146.017C268.447 146.046 268.568 146.084 268.701 146.131C268.838 146.175 268.95 146.218 269.037 146.26L268.555 148.09C268.479 148.039 268.352 147.978 268.174 147.908C268.002 147.835 267.831 147.776 267.662 147.732C267.3 147.636 266.953 147.629 266.622 147.711C266.296 147.789 266.014 147.944 265.777 148.176C265.54 148.407 265.374 148.702 265.28 149.061L263.974 154.023L261.985 153.499ZM275.009 147.903L274.604 149.441L269.752 148.164L270.157 146.626L275.009 147.903ZM271.887 144.919L273.876 145.443L271.79 153.366C271.72 153.633 271.706 153.849 271.749 154.013C271.797 154.174 271.882 154.299 272.004 154.386C272.126 154.472 272.269 154.538 272.434 154.581C272.559 154.614 272.675 154.635 272.782 154.643C272.893 154.653 272.978 154.658 273.037 154.657L272.963 156.301C272.847 156.309 272.684 156.31 272.475 156.301C272.269 156.294 272.024 156.257 271.74 156.19C271.238 156.074 270.809 155.881 270.453 155.611C270.098 155.337 269.85 154.994 269.708 154.58C269.57 154.168 269.572 153.698 269.715 153.172L271.887 144.919Z" fill="white"/>
<path d="M227.872 90.3282C228.235 90.1219 228.624 89.9827 229.039 89.9108C229.454 89.8349 229.88 89.8577 230.318 89.9791C230.754 90.098 231.188 90.3443 231.62 90.718C232.053 91.0917 232.468 91.623 232.865 92.3119C233.243 92.96 233.509 93.5804 233.664 94.1731C233.821 94.7619 233.871 95.3068 233.816 95.8078C233.761 96.3088 233.604 96.7566 233.347 97.1514C233.089 97.5461 232.733 97.8749 232.278 98.1377C231.8 98.4133 231.323 98.5641 230.846 98.5902C230.372 98.6148 229.928 98.5301 229.514 98.336C229.1 98.142 228.746 97.8507 228.453 97.4623L229.8 96.6846C230.042 96.945 230.32 97.1027 230.634 97.1576C230.949 97.2087 231.269 97.1405 231.594 96.953C232.118 96.6505 232.39 96.19 232.41 95.5715C232.43 94.9529 232.207 94.239 231.739 93.4295L231.688 93.4594C231.692 93.7455 231.644 94.0227 231.543 94.2909C231.44 94.5567 231.292 94.8017 231.096 95.026C230.903 95.2489 230.672 95.4384 230.401 95.5947C229.958 95.8504 229.499 95.9747 229.022 95.9676C228.548 95.9592 228.101 95.8301 227.682 95.5803C227.264 95.3292 226.917 94.9669 226.641 94.4935C226.357 94.0014 226.215 93.4945 226.215 92.9726C226.217 92.4469 226.357 91.9529 226.634 91.4908C226.911 91.0262 227.323 90.6387 227.872 90.3282ZM228.515 91.4332C228.249 91.5866 228.047 91.7903 227.908 92.0443C227.771 92.2944 227.704 92.5657 227.709 92.8581C227.715 93.1467 227.796 93.4263 227.952 93.6969C228.11 93.9637 228.31 94.1725 228.555 94.3232C228.802 94.4726 229.066 94.5516 229.346 94.5602C229.629 94.5674 229.905 94.4936 230.173 94.3388C230.372 94.2237 230.536 94.0783 230.664 93.9026C230.792 93.7269 230.881 93.5345 230.931 93.3253C230.982 93.1122 230.993 92.8978 230.963 92.6819C230.936 92.4646 230.865 92.2595 230.751 92.0665C230.601 91.8082 230.402 91.6051 230.153 91.4571C229.906 91.3078 229.638 91.2277 229.35 91.217C229.064 91.2049 228.786 91.277 228.515 91.4332ZM237.001 95.3813C236.777 95.5106 236.539 95.5427 236.289 95.4775C236.038 95.4124 235.848 95.266 235.72 95.0382C235.59 94.8182 235.559 94.5833 235.628 94.3335C235.697 94.0837 235.844 93.8942 236.067 93.7649C236.284 93.6399 236.518 93.61 236.768 93.6751C237.022 93.7388 237.214 93.8807 237.344 94.1007C237.428 94.2522 237.468 94.4115 237.462 94.5785C237.459 94.7441 237.418 94.8994 237.337 95.0442C237.258 95.1852 237.146 95.2975 237.001 95.3813ZM237.219 84.9317C237.582 84.7254 237.971 84.5862 238.386 84.5143C238.801 84.4384 239.227 84.4612 239.665 84.5826C240.101 84.7015 240.535 84.9478 240.967 85.3215C241.4 85.6952 241.815 86.2265 242.212 86.9154C242.59 87.5635 242.856 88.1839 243.011 88.7766C243.168 89.3654 243.218 89.9103 243.163 90.4113C243.108 90.9123 242.951 91.3601 242.694 91.7549C242.436 92.1496 242.08 92.4784 241.625 92.7412C241.147 93.0168 240.67 93.1676 240.193 93.1937C239.719 93.2183 239.275 93.1336 238.861 92.9396C238.447 92.7455 238.093 92.4542 237.8 92.0658L239.147 91.2881C239.389 91.5485 239.667 91.7062 239.981 91.7612C240.296 91.8123 240.616 91.7441 240.941 91.5566C241.465 91.254 241.737 90.7935 241.757 90.175C241.777 89.5565 241.554 88.8425 241.086 88.033L241.035 88.0629C241.039 88.349 240.991 88.6262 240.89 88.8944C240.787 89.1602 240.639 89.4053 240.443 89.6295C240.25 89.8524 240.019 90.0419 239.748 90.1982C239.305 90.4539 238.846 90.5782 238.369 90.5711C237.895 90.5627 237.448 90.4336 237.029 90.1839C236.611 89.9327 236.264 89.5704 235.988 89.097C235.704 88.605 235.562 88.098 235.562 87.5761C235.564 87.0504 235.704 86.5564 235.981 86.0943C236.258 85.6297 236.67 85.2422 237.219 84.9317ZM237.862 86.0368C237.596 86.1902 237.394 86.3939 237.255 86.6478C237.118 86.8979 237.051 87.1692 237.056 87.4616C237.062 87.7502 237.143 88.0298 237.299 88.3004C237.457 88.5672 237.657 88.776 237.902 88.9268C238.149 89.0761 238.413 89.1551 238.693 89.1637C238.976 89.1709 239.252 89.0971 239.52 88.9423C239.719 88.8272 239.883 88.6818 240.011 88.5061C240.139 88.3304 240.228 88.138 240.278 87.9288C240.329 87.7158 240.34 87.5013 240.31 87.2854C240.283 87.0681 240.212 86.863 240.098 86.6701C239.948 86.4117 239.749 86.2086 239.5 86.0606C239.253 85.9113 238.985 85.8313 238.697 85.8206C238.411 85.8084 238.133 85.8805 237.862 86.0368ZM243.958 81.0411C244.321 80.8348 244.71 80.6956 245.124 80.6237C245.54 80.5478 245.966 80.5706 246.404 80.692C246.84 80.8109 247.274 81.0572 247.706 81.4309C248.138 81.8046 248.553 82.3359 248.951 83.0248C249.329 83.6729 249.595 84.2933 249.75 84.886C249.906 85.4748 249.957 86.0197 249.902 86.5207C249.847 87.0217 249.69 87.4695 249.433 87.8643C249.175 88.259 248.819 88.5878 248.363 88.8506C247.886 89.1261 247.409 89.277 246.932 89.3031C246.457 89.3277 246.013 89.243 245.599 89.0489C245.186 88.8549 244.832 88.5636 244.539 88.1752L245.886 87.3975C246.128 87.6579 246.406 87.8156 246.72 87.8705C247.035 87.9216 247.355 87.8534 247.68 87.6659C248.204 87.3634 248.476 86.9028 248.496 86.2843C248.516 85.6658 248.292 84.9519 247.825 84.1424L247.773 84.1723C247.778 84.4584 247.73 84.7355 247.629 85.0038C247.526 85.2696 247.377 85.5146 247.182 85.7389C246.989 85.9618 246.757 86.1513 246.487 86.3076C246.044 86.5632 245.584 86.6876 245.108 86.6805C244.634 86.6721 244.187 86.543 243.767 86.2932C243.35 86.0421 243.003 85.6798 242.727 85.2064C242.442 84.7143 242.301 84.2074 242.301 83.6855C242.303 83.1597 242.442 82.6658 242.72 82.2037C242.996 81.7391 243.409 81.3515 243.958 81.0411ZM244.601 82.1461C244.335 82.2995 244.133 82.5032 243.994 82.7572C243.856 83.0073 243.79 83.2786 243.795 83.571C243.801 83.8596 243.882 84.1392 244.038 84.4098C244.195 84.6766 244.396 84.8853 244.641 85.0361C244.888 85.1855 245.151 85.2645 245.432 85.2731C245.715 85.2803 245.991 85.2065 246.259 85.0517C246.458 84.9366 246.622 84.7912 246.75 84.6155C246.878 84.4398 246.967 84.2474 247.017 84.0382C247.068 83.8251 247.078 83.6107 247.049 83.3948C247.022 83.1775 246.951 82.9724 246.836 82.7794C246.687 82.5211 246.488 82.318 246.239 82.17C245.992 82.0207 245.724 81.9406 245.436 81.9299C245.15 81.9178 244.872 81.9899 244.601 82.1461Z" fill="white"/>
<defs>
<linearGradient id="paint0_linear_147_76" x1="0" y1="0" x2="314" y2="196" gradientUnits="userSpaceOnUse">
<stop stop-color="#1A1A1A"/>
<stop offset="1" stop-color="#161616"/>
</linearGradient>
<linearGradient id="paint1_linear_147_76" x1="0" y1="0" x2="314" y2="196" gradientUnits="userSpaceOnUse">
<stop stop-color="#666666"/>
<stop offset="1" stop-color="#1A1A1A"/>
</linearGradient>
<linearGradient id="paint2_linear_147_76" x1="55" y1="60" x2="110.552" y2="152.666" gradientUnits="userSpaceOnUse">
<stop stop-color="#666666"/>
<stop offset="1" stop-color="#1A1A1A"/>
</linearGradient>
<linearGradient id="paint3_linear_147_76" x1="41.6836" y1="56.4521" x2="70.6423" y2="65.8705" gradientUnits="userSpaceOnUse">
<stop stop-color="#2F82FF"/>
<stop offset="1" stop-color="#272727"/>
</linearGradient>
<linearGradient id="paint4_linear_147_76" x1="127" y1="43" x2="182.552" y2="135.666" gradientUnits="userSpaceOnUse">
<stop stop-color="#666666"/>
<stop offset="1" stop-color="#1A1A1A"/>
</linearGradient>
<linearGradient id="paint5_linear_147_76" x1="199" y1="73" x2="254.552" y2="165.666" gradientUnits="userSpaceOnUse">
<stop stop-color="#666666"/>
<stop offset="1" stop-color="#1A1A1A"/>
</linearGradient>
<linearGradient id="paint6_linear_147_76" x1="191" y1="157.139" x2="211.289" y2="165.15" gradientUnits="userSpaceOnUse">
<stop stop-color="#2F82FF"/>
<stop offset="1" stop-color="#272727"/>
</linearGradient>
</defs>
</svg>
